<?xml version="1.0" encoding="UTF-8"?>
<!DOCTYPE svg PUBLIC "-//W3C//DTD SVG 1.1//EN" "http://www.w3.org/Graphics/SVG/1.1/DTD/svg11.dtd">
<!-- Creator: CorelDRAW X6 -->
<svg xmlns="http://www.w3.org/2000/svg" xml:space="preserve" width="51.7335mm" height="44.0211mm" version="1.1" style="shape-rendering:geometricPrecision; text-rendering:geometricPrecision; image-rendering:optimizeQuality; fill-rule:evenodd; clip-rule:evenodd"
viewBox="0 0 3696 3145"
 xmlns:xlink="http://www.w3.org/1999/xlink">
 <defs>
  <style type="text/css">
   <![CDATA[
    .str3 {stroke:#FEFEFE;stroke-width:14.2897;stroke-linecap:round}
    .str0 {stroke:black;stroke-width:14.2897}
    .str4 {stroke:#040404;stroke-width:14.2897;stroke-linecap:round}
    .str2 {stroke:#040404;stroke-width:17.8621}
    .str5 {stroke:#040404;stroke-width:17.8621;stroke-linecap:round}
    .str1 {stroke:#1F1B20;stroke-width:17.8621;stroke-linecap:round}
    .fil3 {fill:none}
    .fil2 {fill:black}
    .fil0 {fill:#040404}
    .fil1 {fill:white}
    .fil4 {fill:#1C1B17;fill-rule:nonzero}
   ]]>
  </style>
 </defs>
 <g id="Vrstva_x0020_1">
  <metadata id="CorelCorpID_0Corel-Layer"/>
  <g id="_325640656">
   <path class="fil0" d="M2331 397c-9,11 -13,19 -15,33 -2,16 2,19 0,32 13,16 38,13 73,21l205 60c241,87 452,240 624,428 88,96 157,202 219,314 19,34 30,69 48,105 14,29 29,73 39,102 11,35 20,68 29,102 35,137 45,260 39,391l-4 57c0,4 -1,9 -1,13l-10 72c-4,19 -7,28 -11,49l-10 43c-29,114 -77,228 -142,324 -39,58 -83,122 -135,177l-91 83c-154,124 -329,200 -517,243 -132,30 -256,28 -389,22 -25,-1 -71,-7 -94,-11 -32,-6 -61,-11 -96,-19l-46 -11c-15,-4 -34,-8 -46,-12 -108,-35 -225,-77 -322,-138 -45,-28 -91,-52 -135,-84 -101,-75 -177,-140 -256,-241 -36,-46 -53,-142 -54,-201 -1,-46 3,-53 17,-105 6,-21 31,-62 44,-80 19,-24 37,-63 48,-92l36 -69c18,-30 44,-84 69,-115 25,-32 31,-55 64,-86 43,-41 117,-138 134,-199 8,-29 49,-93 69,-115 22,-24 13,-42 15,-68 2,-29 -4,-54 -27,-78 -51,-52 -120,-63 -189,-53 -17,-20 -37,-47 -56,-60 -18,-13 -19,-7 -30,-11 -16,-7 -7,-13 -19,-28 -47,-58 -104,4 -133,0 -14,-2 -46,-32 -56,-45 -57,-69 -66,-32 -122,-66 -25,-15 -98,-35 -126,-32 -28,3 -76,30 -101,47 -24,15 -78,-3 -97,23l-13 55c-3,12 -6,44 -5,60l9 58c11,86 60,230 35,305l-44 -141c-19,-50 -50,-97 -70,-145 -17,-41 -39,-58 -75,-82 -20,-13 -13,-8 -34,-7 -52,3 -91,8 -139,25 -20,7 -54,19 -70,31 -35,26 -17,35 -26,63 -14,48 -79,47 -95,124 -17,83 -58,81 -3,203 19,43 6,29 9,69 -40,20 -62,3 -90,22 -40,28 -39,51 -55,84 -10,19 -20,19 -29,41 -3,6 -4,14 -7,21l-11 21c-11,29 -11,61 -20,90 -8,28 -31,55 -36,84 -4,25 -10,65 1,92 28,70 -4,43 0,92 2,23 41,79 62,100 6,1 16,2 23,3 57,14 17,4 73,-2 17,-2 28,-2 48,-5 73,-10 20,-9 100,-10 17,0 29,4 47,6 29,3 89,-8 146,-3 19,2 29,-7 48,-6 52,4 157,23 210,41 10,3 4,2 12,4 5,1 8,2 12,3 18,4 33,7 49,14 31,12 63,20 91,35l138 60c50,22 88,45 136,79 18,13 25,25 43,36 15,10 31,20 43,31 16,16 28,28 43,44 90,92 292,227 406,278 32,14 58,27 90,41 107,47 251,86 364,100l9 1c1,0 2,0 3,0l97 10c95,5 194,6 289,-7 36,-5 65,-11 100,-17 53,-9 98,-22 147,-38l53 -19c190,-81 304,-158 453,-298 49,-46 155,-204 185,-265 50,-102 94,-212 116,-324l24 -190c1,-11 0,-11 0,-22l1 -76c0,-16 -1,-30 -2,-48 -2,-50 -10,-100 -17,-148 -10,-72 -34,-156 -56,-225 -3,-9 -7,-17 -11,-26 -6,-18 -10,-29 -19,-50 -30,-69 -60,-135 -99,-205 -15,-27 -45,-79 -64,-105 -143,-189 -310,-361 -513,-475 -30,-17 -62,-38 -89,-50 -91,-41 -181,-85 -278,-111l-141 -35c-17,-4 -36,-3 -46,-9z"/>
   <path class="fil1" d="M472 1511c-8,-4 -48,-64 -61,-79 -15,-18 -10,-18 -20,-37 -9,-17 -23,-29 -34,-46 -8,13 -2,7 -7,19 -3,7 -8,15 -11,21l124 177c10,15 16,31 25,43 20,27 90,113 92,135 -11,3 -11,8 -38,-26 -14,-18 -19,-29 -30,-48 -18,-30 -43,-57 -64,-91 -29,-47 -72,-120 -112,-163 -17,-19 -5,-13 -22,-12 -9,16 -2,17 23,51 5,7 14,19 19,26 10,15 11,13 2,23 -18,-6 -51,-63 -65,-78 -32,15 -10,34 6,53 36,42 70,94 110,133 15,14 52,36 41,59 -14,-4 -29,-28 -45,-43 -50,-47 -87,-107 -136,-155l-23 41c36,35 61,71 100,104 15,13 25,17 13,32 -15,-6 -95,-93 -117,-111 -13,30 19,51 45,80l159 146c16,12 70,60 71,80 -27,8 -51,-39 -69,-56 -22,-20 -44,-43 -70,-66l-119 -113c0,0 -9,-8 -9,-8l-14 -7c9,31 32,64 41,100 14,57 39,46 69,91 -14,7 -6,10 -35,-15 -13,-11 -25,-19 -37,-36 -28,50 -75,15 -108,48 4,4 62,35 75,41 19,9 73,25 68,51 -15,2 -25,-10 -41,-18 -16,-9 -23,-9 -38,-17 -20,-11 -37,-24 -59,-33 -17,-7 -9,-7 -23,0 42,52 83,37 86,66 -23,7 -77,-33 -94,-43 -13,16 -11,21 -19,37 35,23 231,106 238,112 -24,13 -40,0 -66,-10l-156 -71c-2,-1 -14,-7 -15,-7 -16,-5 -2,-9 -20,1 1,10 -4,0 4,10 9,11 19,11 32,16 15,6 32,13 43,31 -32,11 -64,-36 -97,-31 -8,14 -10,49 -12,62 25,23 56,29 89,38 46,13 91,33 136,48 18,6 27,12 45,19 12,5 11,3 21,7 34,14 57,11 64,32 -24,17 -291,-108 -358,-111l-8 17c18,17 76,19 94,38 -12,9 -11,5 -23,2l-56 -15c-18,-5 -11,-4 -27,-4 -18,18 -24,45 -15,68 11,4 27,7 40,10 31,7 98,13 121,35 -20,8 -28,7 -47,2 -29,-7 -109,-31 -130,-24 -5,12 -2,26 5,42 27,17 91,8 108,26 -15,18 -36,4 -55,2l-38 -1c-7,25 -5,31 -17,61 14,13 10,10 30,9l118 -9c13,-2 62,-7 73,-2 12,5 6,9 7,13 0,1 -1,2 -2,2 0,0 -2,1 -2,2l-101 7c-19,2 -101,7 -108,12 23,41 34,63 82,58l36 -6c18,0 23,3 42,0 17,-3 28,-7 46,-9 60,-7 128,6 171,0 27,-4 57,-4 82,-1 50,6 30,-10 126,7 12,2 28,3 44,6 21,4 66,21 82,19 -21,-15 -60,-20 -72,-38 16,-12 29,-2 46,4 16,6 32,17 48,21 51,13 29,10 69,27l69 33c10,5 35,10 49,15 8,3 12,6 21,11 16,8 57,33 72,30 -3,-12 -17,-15 -29,-21l-113 -58c-25,-11 -49,-30 -74,-42 -14,-7 -22,-11 -36,-17l-115 -40c-31,-10 -43,-10 -76,-26 -24,-11 -54,-12 -77,-20 -12,-4 -20,-10 -36,-15 -19,-5 -27,-3 -26,-24 14,-6 22,-2 38,5 19,8 19,8 36,14l37 10c36,8 73,26 109,36l74 22c48,17 166,83 214,111 12,7 24,11 36,18 17,10 20,17 37,13 -43,-40 -158,-70 -193,-116 25,-13 91,36 132,57 45,23 55,30 98,63 11,8 8,7 17,12l17 5c-18,-13 -40,-33 -62,-53 -37,-32 -123,-82 -168,-105 -18,-9 -23,-6 -20,-27 22,2 50,26 73,36 0,-16 -50,-41 -63,-49 -11,-6 -23,-17 -35,-23 -13,-7 -20,-5 -38,-18 -12,-8 -22,-15 -35,-23l-72 -37c-6,-2 -49,-24 -29,-32 16,-6 -3,-1 5,-2 23,-2 166,89 186,102 45,28 36,16 97,62 16,12 33,25 49,38 17,13 35,33 54,35 -23,-24 -52,-57 -75,-74 -12,-9 -20,-9 -34,-20 -16,-12 -20,-24 -37,-35 -25,-16 -141,-82 -142,-106 19,-4 37,15 50,27l52 34c17,11 34,18 50,30 18,13 31,40 53,42 0,-9 3,1 -3,-9 0,0 -8,-9 -10,-11 -9,-8 -16,-14 -24,-21l-89 -81c-16,-12 -28,-25 -45,-37 -34,-24 -59,-53 -90,-77 -24,-19 -62,-30 -81,-56 -16,-22 7,13 -4,-7 -1,-1 -1,-3 -1,-4 0,-1 -1,-2 -1,-4 1,-1 1,-2 2,-1 0,0 9,-5 37,19 17,14 25,18 40,28 37,23 237,200 247,204 -21,-35 -125,-115 -127,-142 24,-11 40,22 67,52 21,23 45,47 66,68 40,39 73,99 113,136l18 11c0,-1 -2,-4 -1,-3l-8 -13c-46,-61 -87,-127 -128,-191 -16,-26 -41,-22 -27,-53 57,43 140,220 168,237 -2,-21 -61,-124 -80,-149 -20,-26 -83,-119 -66,-145 23,18 46,83 63,109l65 100c7,9 0,3 8,6 0,-14 -7,-30 -14,-43 -15,-28 -27,-58 -33,-87 -3,-17 1,-25 -4,-41l-29 -87c-6,-20 -31,-62 -16,-83 18,4 16,9 20,27 14,56 43,111 46,170 1,25 36,104 47,128l-18 -171c-3,-11 -5,-18 -7,-30 -3,-15 -5,-19 6,-30 21,39 17,88 21,125 2,20 7,39 8,61 2,26 5,44 15,68 8,-18 -1,-53 0,-76l20 -295c2,-11 1,-13 13,-20 18,20 1,33 1,59 0,50 -11,78 -12,132l2 266c0,25 2,10 7,33 4,17 -4,16 9,36 8,-23 -3,-33 -5,-58l0 -114c0,-8 1,-17 2,-29l3 -28c10,-53 7,-117 22,-168 5,-19 -6,-40 10,-55 26,11 12,23 11,45 -5,82 -37,225 -28,300l0 47c10,-8 28,-107 33,-122l35 -97c2,-21 5,-39 16,-58 17,-30 21,-62 33,-94 8,-23 19,-40 30,-62 9,-20 13,-51 38,-60 10,15 -4,31 -9,47 -6,16 -16,35 -23,48 -18,33 -26,64 -39,99 -18,46 -22,52 -31,98 -5,27 -34,76 -33,99 19,-18 26,-51 44,-76 29,-38 41,-79 63,-119l43 -80c10,-16 18,-28 27,-41l50 -80c17,-25 50,-50 71,-76 29,-37 56,-78 78,-117 15,-27 12,-14 10,-41 29,-31 22,-30 41,-60l40 -61c12,-15 9,-17 10,-34l1 -13c1,-20 3,-36 -9,-52 -10,-13 -20,-22 -32,-26 -8,8 -24,28 -31,37 -10,15 -24,27 -32,41 -8,14 -6,20 -19,38 -12,17 -12,28 -26,44 -14,-21 -6,-30 7,-49 14,-20 16,-27 25,-45 13,-25 58,-62 52,-88 -42,-15 -31,48 -61,54 -3,-16 -3,-1 1,-17 1,-2 5,-13 7,-15 9,-16 11,-10 14,-30 -9,-7 -25,-6 -40,-8 -17,-2 -30,0 -45,20 -5,6 -15,27 -21,38l-64 166c-6,16 -6,30 -24,39 -11,-18 10,-45 16,-62l23 -67c9,-23 21,-43 29,-66l25 -67 -19 -26c-14,24 -23,84 -40,98 -18,-19 19,-89 27,-113 -13,-21 -29,-32 -48,-33 -31,32 -66,259 -88,201 -6,-17 13,-22 17,-42l52 -173c-14,-23 -12,-28 -37,-36 -22,30 -23,96 -44,126 -22,-40 34,-96 15,-125 -70,32 -44,7 -62,72 -13,47 -17,93 -23,140l-12 122c-1,18 0,32 -13,43 -10,-19 1,-64 2,-89l36 -268 -16 -9 -15 78c-3,19 -7,64 -21,79 -6,-14 -2,-24 1,-41 2,-10 1,-10 2,-19l17 -102 -25 -32c-16,27 0,70 -24,94 -12,-21 -4,-28 0,-49 6,-28 13,-55 -9,-83 -15,23 -15,85 -19,114 -3,16 0,20 -3,38l-11 150c-1,15 5,27 5,39 0,11 -3,21 -2,37 1,37 -7,77 -4,114 2,21 0,21 -1,38 0,14 2,24 3,38 0,22 4,28 -14,40 -9,-16 -3,-22 -2,-38l1 -117c1,-27 5,-49 1,-76 -3,-20 3,-22 3,-38 0,-13 -2,-28 -2,-41 0,-43 7,-171 14,-210l7 -79c-6,-29 -27,-21 -29,6 -2,22 1,43 -5,63 -4,12 -5,18 -6,31 -1,21 -4,45 -5,63 -1,18 2,50 -8,65 -27,-11 -4,-54 -6,-88 -1,-42 11,-84 8,-128 -3,-53 -4,-42 -52,-65 -5,13 0,75 -5,102 -3,18 3,21 -9,34 -14,-25 7,-100 -12,-137 -15,-8 -36,-11 -49,-6l45 405c-21,-7 -16,-23 -17,-45 -2,-35 -39,-336 -48,-355 -18,14 -3,43 0,65 2,14 3,22 6,35 4,17 7,15 -1,34 -21,-39 -13,-94 -36,-122l-35 25c2,17 7,37 8,52 8,78 9,76 29,155 4,17 7,33 11,52 3,16 3,33 6,51 6,28 29,83 32,104 -31,-8 -53,-163 -63,-200l-32 -156c-1,-22 4,-27 -9,-50 -18,2 -16,-2 -30,-1l-35 2c-3,26 44,145 51,180 12,56 14,85 38,137 3,7 8,15 11,24 7,21 11,7 -3,22 -8,-24 -30,-60 -40,-84 -11,-25 -47,-208 -69,-251 -46,65 22,270 26,350 5,93 38,103 24,120 -14,-8 -17,-21 -21,-33 -15,32 12,29 -21,65 -19,-26 -30,-80 -40,-112 -18,-59 -90,-246 -136,-281 -19,-15 -29,-29 -49,-21 11,19 34,44 47,63l103 177c3,12 4,6 -3,15 -11,-5 -76,-121 -88,-143 -10,-18 -27,-46 -45,-68 -21,-27 -35,-57 -67,-38 15,37 53,83 65,119 6,18 6,4 1,17 -1,0 -4,-2 -4,-2l-24 -29c-10,-16 -9,-18 -17,-33l-39 -58c-8,-6 -5,-4 -11,-6l11 34c9,16 17,19 14,35 -1,0 -4,-2 -4,-2l-25 -28c-14,-25 -23,-48 -76,-17 35,45 78,114 102,161 14,28 33,52 50,80 9,15 19,27 29,42 7,11 20,28 16,39 -17,2 -12,1 -28,-28 -23,-42 -50,-76 -78,-120 -17,-27 -28,-53 -47,-82 -20,-31 -39,-58 -61,-90 -27,20 -46,17 -33,49 10,26 31,40 41,65 15,38 75,91 64,117z"/>
   <path class="fil2 str0" d="M1651 268c-14,21 -19,43 -25,64 -3,10 -7,22 -8,34l1 35c-2,37 11,106 40,145 32,42 50,63 89,91 44,32 82,34 85,47l-38 23c-25,13 0,-6 -16,7 -7,5 -6,8 -12,15 -23,-9 -16,-2 -34,-7 0,1 1,2 1,3l9 17 -57 -11 8 14c64,25 157,34 224,13l39 -11c65,-25 151,-84 185,-146 6,-12 -1,-3 9,-18 17,-27 13,-15 28,-53 9,-22 13,-60 28,-77 27,9 83,9 109,9 2,-13 -2,-16 0,-32 2,-13 5,-21 15,-33l-78 -8c-75,-13 -31,19 -57,-95 -17,-74 -60,-133 -111,-186 -60,-63 -171,-99 -253,-101 -54,-1 -138,6 -182,47l-28 25c14,2 61,-23 74,-29 16,-7 22,-7 36,-14 22,-10 23,-15 40,-2l-10 15c-1,1 -2,1 -3,2 -2,1 -12,5 -13,5 -31,12 -58,20 -85,41 24,26 9,5 39,24l65 28c-98,77 -75,79 -113,119z"/>
   <path class="fil1" d="M1745 245l-47 93c-1,4 -1,4 -2,9l-6 50c-1,33 7,73 22,103 21,44 50,84 101,112 1,0 2,1 3,1l39 15c23,9 60,14 83,13 18,0 2,0 19,-3 68,-11 107,-29 158,-86 17,-19 29,-47 38,-67l8 -21c0,-1 1,-2 2,-3l3 -90c-4,-32 -4,-35 -19,-68 -25,-55 -63,-97 -121,-119l-60 -20c-14,-4 -21,0 -44,0 -6,0 -15,0 -19,1 -57,6 -113,32 -156,82z"/>
   <path class="fil2 str0" d="M1695 745l-8 -14 57 11 -9 -17c0,0 -1,-2 -1,-3 18,5 11,-3 34,7 6,-7 6,-10 12,-15 15,-12 -10,7 16,-7l38 -23c-3,-13 -41,-15 -85,-47 -39,-28 -56,-49 -89,-91l1 22c-6,-3 -10,-6 -18,-7 -11,-1 -1,0 -9,1 -28,3 -13,0 -29,-1 -41,-4 -17,-5 -40,-17 -18,-9 3,9 -22,-8 -13,-9 -7,-8 -15,-16 -8,-9 1,1 -17,-7 -18,-16 -27,-121 -20,-162l12 -53c13,-4 20,4 36,-25l4 -8c11,7 4,9 15,7l49 -11c18,1 12,-1 17,13 7,-11 2,-6 15,-17 6,2 8,7 12,11 38,-40 15,-41 113,-119l-65 -28c-30,-19 -15,2 -39,-24 27,-21 54,-30 85,-41 1,-1 12,-4 13,-5 1,-1 2,-1 3,-2l10 -15c-17,-13 -18,-8 -40,2 -14,7 -20,6 -36,14 -14,6 -60,32 -74,29l28 -25c-11,-2 12,-10 -22,9 -59,33 -114,94 -140,150 -52,112 -58,228 -6,341 30,64 81,122 139,158 18,11 54,33 75,33z"/>
   <path class="fil2" d="M1843 329c-14,19 -16,19 -21,40 -16,65 11,121 76,144 45,16 135,-6 148,-94 0,-1 1,-5 1,-6 2,-11 3,-10 1,-22 -11,-111 -150,-141 -206,-62z"/>
   <path class="fil1" d="M1659 545c-30,-39 -42,-108 -40,-145l-1 -35c1,-11 5,-23 8,-34 6,-21 11,-44 25,-64 -4,-4 -6,-9 -12,-11 -13,12 -8,6 -15,17 -5,-14 1,-12 -17,-13l-49 11c-11,2 -4,0 -15,-7l-4 8c-16,29 -23,21 -36,25l-12 53c-7,41 2,146 20,162 18,8 9,-2 17,7 8,8 2,7 15,16 25,17 4,-2 22,8 23,12 -1,12 40,17 16,2 1,5 29,1 8,-1 -2,-2 9,-1 8,1 12,4 18,7l-1 -22z"/>
  </g>
  <path class="fil3" d="M674 2141c-6,0 7,-3 0,0zm-39 -160c4,9 -11,-15 0,0zm824 -154c17,-25 50,-50 71,-76 29,-37 56,-78 78,-117 15,-27 12,-14 10,-41 29,-31 22,-30 41,-60l40 -61c12,-15 9,-17 10,-34l1 -13c1,-20 3,-36 -9,-52 -10,-13 -20,-22 -32,-26 -8,8 -24,28 -31,37 -10,15 -24,27 -32,41 -8,14 -6,20 -19,38 -12,17 -12,28 -26,44 -14,-21 -6,-30 7,-49 14,-20 16,-27 25,-45 13,-25 58,-62 52,-88 -42,-15 -31,48 -61,54 -3,-16 -3,-1 1,-17 1,-2 5,-13 7,-15 9,-16 11,-10 14,-30 -9,-7 -25,-6 -40,-8 -17,-2 -30,0 -45,20 -5,6 -15,27 -21,38l-64 166c-6,16 -6,30 -24,39 -11,-18 10,-45 16,-62l23 -67c9,-23 21,-43 29,-66l25 -67 -19 -26c-14,24 -23,84 -40,98 -18,-19 19,-89 27,-113 -13,-21 -29,-32 -48,-33 -31,32 -66,259 -88,201 -6,-17 13,-22 17,-42l52 -173c-14,-23 -12,-28 -37,-36 -22,30 -23,96 -44,126 -22,-40 34,-96 15,-125 -70,32 -44,7 -62,72 -13,47 -17,93 -23,140l-12 122c-1,18 0,32 -13,43 -10,-19 1,-64 2,-89l36 -268 -16 -9 -15 78c-3,19 -7,64 -21,79 -6,-14 -2,-24 1,-41 2,-10 1,-10 2,-19l17 -102 -25 -32c-16,27 0,70 -24,94 -12,-21 -4,-28 0,-49 6,-28 13,-55 -9,-83 -15,23 -15,85 -19,114 -3,16 0,20 -3,38l-11 150c-1,15 5,27 5,39 0,11 -3,21 -2,37 1,37 -7,77 -4,114 2,21 0,21 -1,38 0,14 2,24 3,38 0,22 4,28 -14,40 -9,-16 -3,-22 -2,-38l1 -117c1,-27 5,-49 1,-76 -3,-20 3,-22 3,-38 0,-13 -2,-28 -2,-41 0,-43 7,-171 14,-210l7 -79c-6,-29 -27,-21 -29,6 -2,22 1,43 -5,63 -4,12 -5,18 -6,31 -1,21 -4,45 -5,63 -1,18 2,50 -8,65 -27,-11 -4,-54 -6,-88 -1,-42 11,-84 8,-128 -3,-53 -4,-42 -52,-65 -5,13 0,75 -5,102 -3,18 3,21 -9,34 -14,-25 7,-100 -12,-137 -15,-8 -36,-11 -49,-6l45 405c-21,-7 -16,-23 -17,-45 -2,-35 -39,-336 -48,-355 -18,14 -3,43 0,65 2,14 3,22 6,35 4,17 7,15 -1,34 -21,-39 -13,-94 -36,-122l-35 25c2,17 7,37 8,52 8,78 9,76 29,155 4,17 7,33 11,52 3,16 3,33 6,51 6,28 29,83 32,104 -31,-8 -53,-163 -63,-200l-32 -156c-1,-22 4,-27 -9,-50 -18,2 -16,-2 -30,-1l-35 2c-3,26 44,145 51,180 12,56 14,85 38,137 3,7 8,15 11,24 7,21 11,7 -3,22 -8,-24 -30,-60 -40,-84 -11,-25 -47,-208 -69,-251 -46,65 22,270 26,350 5,93 38,103 24,120 -14,-8 -17,-21 -21,-33 -15,32 12,29 -21,65 -19,-26 -30,-80 -40,-112 -18,-59 -90,-246 -136,-281 -19,-15 -29,-29 -49,-21 11,19 34,44 47,63l103 177c3,12 4,6 -3,15 -11,-5 -76,-121 -88,-143 -10,-18 -27,-46 -45,-68 -21,-27 -35,-57 -67,-38 15,37 53,83 65,119 6,18 6,4 1,17 -1,0 -4,-2 -4,-2l-24 -29c-10,-16 -9,-18 -17,-33l-39 -58c-8,-6 -5,-4 -11,-6l11 34c9,16 17,19 14,35 -1,0 -4,-2 -4,-2l-25 -28c-14,-25 -23,-48 -76,-17 35,45 78,114 102,161 14,28 33,52 50,80 9,15 19,27 29,42 7,11 20,28 16,39 -17,2 -12,1 -28,-28 -23,-42 -50,-76 -78,-120 -17,-27 -28,-53 -47,-82 -20,-31 -39,-58 -61,-90 -27,20 -46,17 -33,49 10,26 31,40 41,65 15,38 75,91 64,117 -8,-4 -48,-64 -61,-79 -15,-18 -10,-18 -20,-37 -9,-17 -23,-29 -34,-46 -8,13 -2,7 -7,19 -3,7 -8,15 -11,21l124 177c10,15 16,31 25,43 20,27 90,113 92,135 -11,3 -11,8 -38,-26 -14,-18 -19,-29 -30,-48 -18,-30 -43,-57 -64,-91 -29,-47 -72,-120 -112,-163 -17,-19 -5,-13 -22,-12 -9,16 -2,17 23,51 5,7 14,19 19,26 10,15 11,13 2,23 -18,-6 -51,-63 -65,-78 -32,15 -10,34 6,53 36,42 70,94 110,133 15,14 52,36 41,59 -14,-4 -29,-28 -45,-43 -50,-47 -87,-107 -136,-155l-23 41c36,35 61,71 100,104 15,13 25,17 13,32 -15,-6 -95,-93 -117,-111 -13,30 19,51 45,80l159 146c16,12 70,60 71,80 -27,8 -51,-39 -69,-56 -22,-20 -44,-43 -70,-66l-119 -113 -9 -8 -14 -7c9,31 32,64 41,100 14,57 39,46 69,91 -14,7 -6,10 -35,-15 -13,-11 -25,-19 -37,-36 -28,50 -75,15 -108,48 4,4 62,35 75,41 19,9 73,25 68,51 -15,2 -25,-10 -41,-18 -16,-9 -23,-9 -38,-17 -20,-11 -37,-24 -59,-33 -17,-7 -9,-7 -23,0 42,52 83,37 86,66 -23,7 -77,-33 -94,-43 -13,16 -11,21 -19,37 35,23 231,106 238,112 -24,13 -40,0 -66,-10l-156 -71 -15 -7c-16,-5 -2,-9 -20,1 1,10 -4,0 4,10 9,11 19,11 32,16 15,6 32,13 43,31 -32,11 -64,-36 -97,-31 -8,14 -10,49 -12,62 25,23 56,29 89,38 46,13 91,33 136,48 18,6 27,12 45,19 12,5 11,3 21,7 34,14 57,11 64,32 -24,17 -291,-108 -358,-111l-8 17c18,17 76,19 94,38 -12,9 -11,5 -23,2l-56 -15c-18,-5 -11,-4 -27,-4 -18,18 -24,45 -15,68 11,4 27,7 40,10 31,7 98,13 121,35 -20,8 -28,7 -47,2 -29,-7 -109,-31 -130,-24 -5,12 -2,26 5,42 27,17 91,8 108,26 -15,18 -36,4 -55,2l-38 -1c-7,25 -5,31 -17,61 14,13 10,10 30,9l118 -9c13,-2 62,-7 73,-2 12,5 6,9 7,13 0,1 -1,2 -2,2l-2 2 -101 7c-19,2 -101,7 -108,12 23,41 34,63 82,58l36 -6c18,0 23,3 42,0 17,-3 28,-7 46,-9 60,-7 128,6 171,0 27,-4 57,-4 82,-1 50,6 30,-10 126,7 12,2 28,3 44,6 21,4 66,21 82,19 -21,-15 -60,-20 -72,-38 16,-12 29,-2 46,4 16,6 32,17 48,21 51,13 29,10 69,27l69 33c10,5 35,10 49,15 8,3 12,6 21,11 16,8 57,33 72,30 -3,-12 -17,-15 -29,-21l-113 -58c-25,-11 -49,-30 -74,-42 -14,-7 -22,-11 -36,-17l-115 -40c-31,-10 -43,-10 -76,-26 -24,-11 -54,-12 -77,-20 -12,-4 -20,-10 -36,-15 -19,-5 -27,-3 -26,-24 14,-6 22,-2 38,5 19,8 19,8 36,14l37 10c36,8 73,26 109,36l74 22c48,17 166,83 214,111 12,7 24,11 36,18 17,10 20,17 37,13 -43,-40 -158,-70 -193,-116 25,-13 91,36 132,57 45,23 55,30 98,63 11,8 8,7 17,12l17 5c-18,-13 -40,-33 -62,-53 -37,-32 -123,-82 -168,-105 -18,-9 -23,-6 -20,-27 22,2 50,26 73,36 0,-16 -50,-41 -63,-49 -11,-6 -23,-17 -35,-23 -13,-7 -20,-5 -38,-18 -12,-8 -22,-15 -35,-23l-72 -37c-6,-2 -49,-24 -29,-32 2,-1 4,-1 5,-2 0,0 0,0 0,0 23,-2 166,89 186,102 45,28 36,16 97,62 16,12 33,25 49,38 17,13 35,33 54,35 -23,-24 -52,-57 -75,-74 -12,-9 -20,-9 -34,-20 -16,-12 -20,-24 -37,-35 -25,-16 -141,-82 -142,-106 19,-4 37,15 50,27l52 34c17,11 34,18 50,30 18,13 31,40 53,42 0,-3 0,-4 1,-4 0,0 -1,-1 -4,-5l-10 -11c-9,-8 -16,-14 -24,-21l-89 -81c-16,-12 -28,-25 -45,-37 -34,-24 -59,-53 -90,-77 -24,-19 -62,-30 -81,-56 -1,-1 -1,-2 -2,-2 0,-1 -1,-3 -2,-5 -1,-1 -1,-3 -1,-4 0,-1 -1,-2 -1,-4 1,-1 1,-2 2,-1 0,0 9,-5 37,19 17,14 25,18 40,28 37,23 237,200 247,204 -21,-35 -125,-115 -127,-142 24,-11 40,22 67,52 21,23 45,47 66,68 40,39 73,99 113,136l18 11c0,-1 -2,-4 -1,-3l-8 -13c-46,-61 -87,-127 -128,-191 -16,-26 -41,-22 -27,-53 57,43 140,220 168,237 -2,-21 -61,-124 -80,-149 -20,-26 -83,-119 -66,-145 23,18 46,83 63,109l65 100c7,9 0,3 8,6 0,-14 -7,-30 -14,-43 -15,-28 -27,-58 -33,-87 -3,-17 1,-25 -4,-41l-29 -87c-6,-20 -31,-62 -16,-83 18,4 16,9 20,27 14,56 43,111 46,170 1,25 36,104 47,128l-18 -171c-3,-11 -5,-18 -7,-30 -3,-15 -5,-19 6,-30 21,39 17,88 21,125 2,20 7,39 8,61 2,26 5,44 15,68 8,-18 -1,-53 0,-76l20 -295c2,-11 1,-13 13,-20 18,20 1,33 1,59 0,50 -11,78 -12,132l2 266c0,25 2,10 7,33 4,17 -4,16 9,36 8,-23 -3,-33 -5,-58l0 -114c0,-8 1,-17 2,-29l3 -28c10,-53 7,-117 22,-168 5,-19 -6,-40 10,-55 26,11 12,23 11,45 -5,82 -37,225 -28,300l0 47c10,-8 28,-107 33,-122l35 -97c2,-21 5,-39 16,-58 17,-30 21,-62 33,-94 8,-23 19,-40 30,-62 9,-20 13,-51 38,-60 10,15 -4,31 -9,47 -6,16 -16,35 -23,48 -18,33 -26,64 -39,99 -18,46 -22,52 -31,98 -5,27 -34,76 -33,99 19,-18 26,-51 44,-76 29,-38 41,-79 63,-119l43 -80c10,-16 18,-28 27,-41l50 -80z"/>
  <path class="fil3 str1" d="M856 2411c-239,-53 -488,-64 -747,-33"/>
  <polygon class="fil4" points="2278,1400 2193,1582 2110,1398 2084,1572 2021,1563 2085,1225 2194,1456 2303,1225 2369,1563 2304,1572 "/>
  <path id="1" class="fil4" d="M2516 1522c10,0 22,-3 37,-9 14,-6 25,-12 32,-20l20 55c-11,9 -25,16 -43,22 -17,6 -34,9 -49,9 -35,0 -65,-12 -89,-35 -26,-24 -39,-53 -39,-87 0,-36 11,-68 34,-95 24,-28 53,-42 89,-42 26,0 49,8 70,23 21,15 36,35 45,59l-163 97c16,15 35,22 56,22zm-75 -77l0 8 107 -61c-12,-10 -25,-15 -38,-15 -18,0 -34,7 -48,20 -15,15 -22,31 -21,47z"/>
  <path id="2" class="fil4" d="M2835 1545c-21,21 -46,31 -73,31 -35,0 -65,-14 -88,-43 -21,-27 -32,-58 -32,-94 0,-33 11,-62 33,-87 22,-25 49,-37 82,-37 28,0 53,9 75,28l0 -102 58 9 0 325 -55 -5 0 -25zm-134 -98c0,19 6,36 18,50 13,15 29,23 48,23 20,0 37,-8 51,-24 13,-15 19,-33 19,-53 0,-19 -7,-36 -20,-49 -14,-13 -30,-20 -49,-20 -19,0 -35,8 -48,23 -12,14 -18,31 -18,50z"/>
  <path id="3" class="fil4" d="M2913 1266l40 -45 42 45 -40 45 -41 -45zm11 63l57 -8 0 246 -57 9 0 -246z"/>
  <polygon id="4" class="fil4" points="1761,1951 1870,1951 1870,2014 1761,2014 "/>
  <path id="5" class="fil4" d="M1955 2128l-63 8 0 -324 87 -1c33,0 60,7 81,23 23,17 35,42 35,74 0,41 -14,71 -42,88 -22,14 -55,21 -99,21l0 110zm0 -174l29 1c11,0 22,-4 31,-13 10,-9 15,-19 15,-30 0,-25 -14,-37 -42,-36l-33 0 0 79z"/>
  <path id="6" class="fil4" d="M2245 1946c-39,-2 -59,34 -59,107 0,8 1,20 2,37 1,16 2,29 2,37l-57 7 0 -242 55 -8 0 39c11,-14 22,-25 33,-31 14,-8 28,-12 44,-12l19 1 -26 66 -12 0z"/>
  <path id="7" class="fil4" d="M2445 2108c-17,17 -35,25 -54,25 -24,0 -45,-7 -64,-22 -19,-15 -29,-35 -29,-59 0,-25 9,-47 26,-64 17,-17 39,-26 64,-26 18,0 35,6 51,17l0 -16c0,-22 -14,-33 -43,-33 -23,0 -48,5 -75,15l18 -62c12,-6 34,-9 66,-9 25,0 46,6 62,19 18,14 27,33 27,57l0 172 -50 8 0 -23zm-91 -63c0,11 5,20 14,27 8,6 18,10 30,10 11,0 21,-3 30,-8 8,-6 12,-14 12,-25 0,-11 -4,-20 -13,-26 -9,-7 -19,-10 -30,-10 -11,0 -21,3 -29,8 -9,6 -14,14 -14,25z"/>
  <polygon id="8" class="fil4" points="2730,2122 2670,2141 2572,2012 2570,2130 2513,2136 2513,1809 2570,1801 2570,2002 2674,1879 2731,1903 2639,2006 "/>
  <path id="9" class="fil4" d="M2872 2137c-37,0 -62,-13 -76,-38 -10,-19 -15,-47 -15,-86 0,-8 0,-20 1,-35 1,-16 1,-27 1,-35l-36 0 16 -58 21 0 0 -41 58 -27 0 68 52 0 0 59 -52 0 -2 99c0,10 5,19 15,25 9,6 19,9 29,9 11,0 20,-1 25,-4l-20 61c-5,1 -11,2 -17,2z"/>
  <path id="10" class="fil4" d="M2929 1827l40 -45 42 45 -40 45 -41 -45zm11 63l57 -8 0 246 -57 9 0 -246z"/>
  <polygon id="11" class="fil4" points="3246,2122 3187,2141 3089,2012 3087,2130 3030,2136 3030,1809 3087,1801 3087,2002 3191,1879 3248,1903 3155,2006 "/>
  <path id="12" class="fil4" d="M2041 2658l36 -39c11,15 27,22 47,22 25,0 37,-8 37,-23 0,-10 -10,-18 -29,-23 -29,-8 -47,-15 -55,-19 -20,-12 -29,-31 -29,-57 0,-25 8,-45 23,-60 15,-15 35,-23 60,-23 16,0 31,4 47,11 16,8 28,18 35,30l-38 34c-11,-15 -25,-22 -41,-22 -19,0 -28,8 -28,25 0,8 10,15 29,20 27,7 45,14 55,21 20,14 30,35 30,64 0,22 -10,41 -29,55 -18,13 -38,20 -62,20 -17,0 -33,-3 -48,-10 -17,-7 -30,-16 -40,-28z"/>
  <polygon id="13" class="fil4" points="2239,2651 2283,2601 2330,2651 2286,2699 "/>
  <path id="14" class="fil4" d="M2479 2507c-39,-2 -59,34 -59,107 0,8 1,20 2,37 1,16 2,29 2,37l-57 7 0 -242 55 -8 0 39c11,-14 22,-25 33,-31 14,-8 28,-12 44,-12l19 1 -26 66 -12 0z"/>
  <polygon id="15" class="fil4" points="2531,2651 2576,2601 2622,2651 2578,2699 "/>
  <path id="16" class="fil4" d="M2636 2575c0,-34 10,-62 31,-87 22,-26 49,-39 82,-39 34,0 63,13 85,40 21,25 32,55 32,90 0,33 -11,61 -34,85 -23,24 -51,35 -83,35 -33,0 -60,-13 -82,-39 -21,-24 -31,-53 -31,-86zm51 0c0,19 6,35 17,48 12,14 27,22 45,22 18,0 34,-7 47,-19 13,-13 20,-29 20,-47 0,-20 -6,-37 -19,-51 -12,-14 -28,-22 -48,-22 -18,0 -33,7 -45,21 -12,14 -18,30 -18,48z"/>
  <polygon id="17" class="fil4" points="2886,2651 2930,2601 2977,2651 2932,2699 "/>
  <path class="fil3 str2" d="M1241 2517c-2,-29 -11,-115 -8,-182 2,-41 13,-71 17,-90 6,-26 29,-57 44,-80 5,-8 7,-6 10,-14 19,-53 59,-101 78,-154l50 -87 63 -91 92 -94 80 -152 49 -106"/>
  <line class="fil3 str3" x1="1647" y1="1539" x2="1609" y2= "1616" />
  <path class="fil3 str4" d="M1304 2157c-48,91 -71,159 -73,200"/>
  <path class="fil3 str5" d="M1215 2597c-41,-25 -154,-72 -201,-90 -35,-14 -80,-41 -117,-52 -36,-11 -102,-46 -136,-50 -32,-4 -123,-27 -154,-29 -84,-6 -154,-11 -217,-7 -58,4 -109,0 -192,0"/>
 </g>
</svg>
